<svg width="1136" height="28" viewBox="0 0 1136 28" fill="none" xmlns="http://www.w3.org/2000/svg">
<path d="M989 14H0" stroke="#C5992E" stroke-width="2"/>
<circle cx="91.4238" cy="14" r="13" stroke="#C5992E" stroke-width="2"/>
<path d="M1013.26 22V8.9H1009.22V7.1H1019.22V8.9H1015.24V22H1013.26ZM1024.44 22.24C1023.4 22.24 1022.48 21.9933 1021.66 21.5C1020.85 21.0067 1020.21 20.3333 1019.74 19.48C1019.28 18.6133 1019.04 17.6467 1019.04 16.58C1019.04 15.5 1019.27 14.54 1019.72 13.7C1020.19 12.86 1020.82 12.2 1021.6 11.72C1022.4 11.2267 1023.3 10.98 1024.28 10.98C1025.08 10.98 1025.79 11.1267 1026.4 11.42C1027.03 11.7 1027.56 12.0867 1027.98 12.58C1028.42 13.06 1028.76 13.6133 1028.98 14.24C1029.22 14.8533 1029.34 15.4933 1029.34 16.16C1029.34 16.3067 1029.33 16.4733 1029.3 16.66C1029.29 16.8333 1029.27 17 1029.24 17.16H1020.4V15.56H1028.16L1027.28 16.28C1027.4 15.5867 1027.34 14.9667 1027.08 14.42C1026.83 13.8733 1026.46 13.44 1025.96 13.12C1025.47 12.8 1024.91 12.64 1024.28 12.64C1023.66 12.64 1023.08 12.8 1022.56 13.12C1022.04 13.44 1021.64 13.9 1021.34 14.5C1021.06 15.0867 1020.95 15.7867 1021 16.6C1020.95 17.3867 1021.07 18.08 1021.36 18.68C1021.67 19.2667 1022.1 19.7267 1022.64 20.06C1023.2 20.38 1023.81 20.54 1024.46 20.54C1025.18 20.54 1025.79 20.3733 1026.28 20.04C1026.78 19.7067 1027.18 19.28 1027.48 18.76L1029.04 19.56C1028.83 20.0533 1028.5 20.5067 1028.04 20.92C1027.6 21.32 1027.08 21.64 1026.46 21.88C1025.86 22.12 1025.19 22.24 1024.44 22.24ZM1031.77 22V11.22H1033.59V13.32L1033.29 13.14C1033.55 12.46 1033.98 11.9333 1034.57 11.56C1035.17 11.1733 1035.87 10.98 1036.67 10.98C1037.44 10.98 1038.13 11.1533 1038.73 11.5C1039.34 11.8467 1039.82 12.3267 1040.17 12.94C1040.53 13.5533 1040.71 14.2467 1040.71 15.02V22H1038.83V15.62C1038.83 15.02 1038.72 14.5133 1038.51 14.1C1038.29 13.6867 1037.99 13.3667 1037.59 13.14C1037.2 12.9 1036.75 12.78 1036.25 12.78C1035.74 12.78 1035.29 12.9 1034.89 13.14C1034.5 13.3667 1034.19 13.6933 1033.97 14.12C1033.74 14.5333 1033.63 15.0333 1033.63 15.62V22H1031.77ZM1047.75 22.12C1046.7 22.12 1045.88 21.82 1045.31 21.22C1044.75 20.62 1044.47 19.7733 1044.47 18.68V13H1042.51V11.22H1042.91C1043.39 11.22 1043.77 11.0733 1044.05 10.78C1044.33 10.4867 1044.47 10.1 1044.47 9.62V8.74H1046.33V11.22H1048.75V13H1046.33V18.62C1046.33 18.98 1046.38 19.2933 1046.49 19.56C1046.61 19.8267 1046.8 20.04 1047.07 20.2C1047.34 20.3467 1047.69 20.42 1048.13 20.42C1048.22 20.42 1048.34 20.4133 1048.47 20.4C1048.62 20.3867 1048.75 20.3733 1048.87 20.36V22C1048.7 22.04 1048.5 22.0667 1048.29 22.08C1048.08 22.1067 1047.9 22.12 1047.75 22.12ZM1054.32 22.24C1053.62 22.24 1052.99 22.1133 1052.44 21.86C1051.91 21.5933 1051.49 21.2333 1051.18 20.78C1050.88 20.3133 1050.72 19.78 1050.72 19.18C1050.72 18.6067 1050.84 18.0933 1051.08 17.64C1051.34 17.1733 1051.72 16.78 1052.24 16.46C1052.78 16.14 1053.44 15.9133 1054.24 15.78L1058.24 15.12V16.68L1054.66 17.28C1053.97 17.4 1053.46 17.62 1053.14 17.94C1052.84 18.26 1052.68 18.6533 1052.68 19.12C1052.68 19.56 1052.86 19.9267 1053.2 20.22C1053.56 20.5133 1054.01 20.66 1054.54 20.66C1055.22 20.66 1055.81 20.52 1056.3 20.24C1056.81 19.9467 1057.2 19.5533 1057.48 19.06C1057.78 18.5667 1057.92 18.02 1057.92 17.42V14.68C1057.92 14.0933 1057.7 13.62 1057.26 13.26C1056.84 12.8867 1056.27 12.7 1055.56 12.7C1054.95 12.7 1054.4 12.86 1053.92 13.18C1053.46 13.4867 1053.11 13.9 1052.88 14.42L1051.26 13.58C1051.46 13.0867 1051.78 12.6467 1052.22 12.26C1052.66 11.86 1053.18 11.5467 1053.76 11.32C1054.35 11.0933 1054.96 10.98 1055.6 10.98C1056.43 10.98 1057.16 11.14 1057.78 11.46C1058.41 11.7667 1058.9 12.2 1059.24 12.76C1059.6 13.3067 1059.78 13.9467 1059.78 14.68V22H1057.96V19.96L1058.3 20.08C1058.08 20.5067 1057.77 20.88 1057.38 21.2C1057 21.52 1056.54 21.7733 1056.02 21.96C1055.5 22.1467 1054.94 22.24 1054.32 22.24ZM1062.67 22V11.22H1064.49V13.32L1064.19 13.14C1064.45 12.46 1064.88 11.9333 1065.47 11.56C1066.07 11.1733 1066.77 10.98 1067.57 10.98C1068.34 10.98 1069.03 11.1533 1069.63 11.5C1070.24 11.8467 1070.72 12.3267 1071.07 12.94C1071.43 13.5533 1071.61 14.2467 1071.61 15.02V22H1069.73V15.62C1069.73 15.02 1069.62 14.5133 1069.41 14.1C1069.19 13.6867 1068.89 13.3667 1068.49 13.14C1068.1 12.9 1067.65 12.78 1067.15 12.78C1066.64 12.78 1066.19 12.9 1065.79 13.14C1065.4 13.3667 1065.09 13.6933 1064.87 14.12C1064.64 14.5333 1064.53 15.0333 1064.53 15.62V22H1062.67ZM1079.41 26.4C1078.65 26.4 1077.94 26.28 1077.29 26.04C1076.65 25.8 1076.09 25.4667 1075.63 25.04C1075.17 24.6267 1074.83 24.14 1074.59 23.58L1076.33 22.78C1076.51 23.2867 1076.87 23.7133 1077.39 24.06C1077.92 24.42 1078.59 24.6 1079.39 24.6C1080 24.6 1080.55 24.48 1081.05 24.24C1081.55 24.0133 1081.95 23.6667 1082.25 23.2C1082.54 22.7467 1082.69 22.1933 1082.69 21.54V19.12L1083.03 19.48C1082.65 20.2133 1082.11 20.7733 1081.41 21.16C1080.71 21.5467 1079.95 21.74 1079.11 21.74C1078.09 21.74 1077.19 21.5067 1076.39 21.04C1075.59 20.56 1074.96 19.9133 1074.51 19.1C1074.05 18.2733 1073.83 17.36 1073.83 16.36C1073.83 15.3467 1074.05 14.4333 1074.51 13.62C1074.96 12.8067 1075.58 12.1667 1076.37 11.7C1077.17 11.22 1078.07 10.98 1079.09 10.98C1079.93 10.98 1080.69 11.1733 1081.37 11.56C1082.06 11.9333 1082.61 12.4533 1083.03 13.12L1082.75 13.62V11.22H1084.57V21.54C1084.57 22.4733 1084.35 23.3067 1083.91 24.04C1083.47 24.7733 1082.85 25.3467 1082.07 25.76C1081.29 26.1867 1080.41 26.4 1079.41 26.4ZM1079.27 19.94C1079.91 19.94 1080.48 19.78 1080.99 19.46C1081.51 19.14 1081.92 18.7133 1082.23 18.18C1082.53 17.6333 1082.69 17.0267 1082.69 16.36C1082.69 15.7067 1082.53 15.1067 1082.23 14.56C1081.92 14.0133 1081.51 13.58 1080.99 13.26C1080.48 12.94 1079.91 12.78 1079.27 12.78C1078.61 12.78 1078.02 12.94 1077.49 13.26C1076.95 13.58 1076.53 14.0133 1076.23 14.56C1075.93 15.0933 1075.79 15.6933 1075.79 16.36C1075.79 17.0267 1075.93 17.6333 1076.23 18.18C1076.53 18.7133 1076.95 19.14 1077.47 19.46C1078 19.78 1078.6 19.94 1079.27 19.94ZM1090.91 22V6.86H1092.77V17.24L1092.01 17.06L1097.73 11.22H1100.11L1095.97 15.56L1100.39 22H1098.19L1094.15 16.16L1095.31 16.1L1092.17 19.38L1092.77 18.02V22H1090.91ZM1105.22 22.24C1104.51 22.24 1103.89 22.1133 1103.34 21.86C1102.81 21.5933 1102.39 21.2333 1102.08 20.78C1101.77 20.3133 1101.62 19.78 1101.62 19.18C1101.62 18.6067 1101.74 18.0933 1101.98 17.64C1102.23 17.1733 1102.62 16.78 1103.14 16.46C1103.67 16.14 1104.34 15.9133 1105.14 15.78L1109.14 15.12V16.68L1105.56 17.28C1104.87 17.4 1104.36 17.62 1104.04 17.94C1103.73 18.26 1103.58 18.6533 1103.58 19.12C1103.58 19.56 1103.75 19.9267 1104.1 20.22C1104.46 20.5133 1104.91 20.66 1105.44 20.66C1106.12 20.66 1106.71 20.52 1107.2 20.24C1107.71 19.9467 1108.1 19.5533 1108.38 19.06C1108.67 18.5667 1108.82 18.02 1108.82 17.42V14.68C1108.82 14.0933 1108.6 13.62 1108.16 13.26C1107.73 12.8867 1107.17 12.7 1106.46 12.7C1105.85 12.7 1105.3 12.86 1104.82 13.18C1104.35 13.4867 1104.01 13.9 1103.78 14.42L1102.16 13.58C1102.36 13.0867 1102.68 12.6467 1103.12 12.26C1103.56 11.86 1104.07 11.5467 1104.66 11.32C1105.25 11.0933 1105.86 10.98 1106.5 10.98C1107.33 10.98 1108.05 11.14 1108.68 11.46C1109.31 11.7667 1109.79 12.2 1110.14 12.76C1110.5 13.3067 1110.68 13.9467 1110.68 14.68V22H1108.86V19.96L1109.2 20.08C1108.97 20.5067 1108.67 20.88 1108.28 21.2C1107.89 21.52 1107.44 21.7733 1106.92 21.96C1106.4 22.1467 1105.83 22.24 1105.22 22.24ZM1113.57 22V11.22H1115.39V13.42L1115.13 13.08C1115.39 12.4 1115.82 11.88 1116.41 11.52C1116.99 11.16 1117.65 10.98 1118.39 10.98C1119.23 10.98 1119.98 11.2133 1120.65 11.68C1121.33 12.1467 1121.79 12.76 1122.05 13.52L1121.53 13.54C1121.81 12.7 1122.28 12.0667 1122.95 11.64C1123.61 11.2 1124.35 10.98 1125.17 10.98C1125.91 10.98 1126.59 11.1533 1127.19 11.5C1127.8 11.8467 1128.29 12.3267 1128.65 12.94C1129.01 13.5533 1129.19 14.2467 1129.19 15.02V22H1127.31V15.62C1127.31 15.02 1127.2 14.5133 1126.99 14.1C1126.77 13.6867 1126.48 13.3667 1126.11 13.14C1125.75 12.9 1125.32 12.78 1124.83 12.78C1124.35 12.78 1123.91 12.9 1123.53 13.14C1123.15 13.3667 1122.85 13.6933 1122.63 14.12C1122.41 14.5333 1122.31 15.0333 1122.31 15.62V22H1120.43V15.62C1120.43 15.02 1120.32 14.5133 1120.11 14.1C1119.89 13.6867 1119.6 13.3667 1119.23 13.14C1118.87 12.9 1118.44 12.78 1117.95 12.78C1117.47 12.78 1117.03 12.9 1116.65 13.14C1116.27 13.3667 1115.97 13.6933 1115.75 14.12C1115.53 14.5333 1115.43 15.0333 1115.43 15.62V22H1113.57ZM1131.83 22V11.22H1133.69V22H1131.83ZM1131.83 9.5V7.1H1133.69V9.5H1131.83Z" fill="#C5992E"/>
</svg>
