<svg width="1210" height="57" viewBox="0 0 1210 57" fill="none" xmlns="http://www.w3.org/2000/svg">
<path d="M654.753 14.9187H0.698242" stroke="#C5992E" stroke-width="2"/>
<path d="M1209.65 14.9187H740.876" stroke="#C5992E" stroke-width="2"/>
<path d="M739.876 14.9184C739.876 19.9507 735.821 24.0205 730.83 24.0205C725.84 24.0205 721.785 19.9507 721.785 14.9184C721.785 9.8862 725.84 5.81641 730.83 5.81641C735.821 5.81641 739.876 9.8862 739.876 14.9184Z" stroke="#C5992E" stroke-width="2"/>
<path d="M672.66 21V6.1H674.62V21H672.66ZM677.713 21V10.22H679.533V12.32L679.233 12.14C679.5 11.46 679.927 10.9333 680.513 10.56C681.113 10.1733 681.813 9.98 682.613 9.98C683.387 9.98 684.073 10.1533 684.673 10.5C685.287 10.8467 685.767 11.3267 686.113 11.94C686.473 12.5533 686.653 13.2467 686.653 14.02V21H684.773V14.62C684.773 14.02 684.667 13.5133 684.453 13.1C684.24 12.6867 683.933 12.3667 683.533 12.14C683.147 11.9 682.7 11.78 682.193 11.78C681.687 11.78 681.233 11.9 680.833 12.14C680.447 12.3667 680.14 12.6933 679.913 13.12C679.687 13.5333 679.573 14.0333 679.573 14.62V21H677.713ZM690.455 21V12H688.395V10.22H690.455V9.46C690.455 8.68667 690.622 8.03333 690.955 7.5C691.302 6.96667 691.755 6.56 692.315 6.28C692.888 6 693.522 5.86 694.215 5.86C694.362 5.86 694.522 5.87333 694.695 5.9C694.882 5.91333 695.035 5.93333 695.155 5.96V7.62C695.048 7.59333 694.922 7.58 694.775 7.58C694.628 7.56667 694.515 7.56 694.435 7.56C693.822 7.56 693.315 7.70667 692.915 8C692.528 8.29333 692.335 8.78 692.335 9.46V10.22H694.895V12H692.335V21H690.455ZM701.876 21.24C700.836 21.24 699.896 21 699.056 20.52C698.216 20.0267 697.55 19.3533 697.056 18.5C696.563 17.6467 696.316 16.68 696.316 15.6C696.316 14.52 696.556 13.56 697.036 12.72C697.53 11.88 698.196 11.2133 699.036 10.72C699.876 10.2267 700.823 9.98 701.876 9.98C702.916 9.98 703.856 10.2267 704.696 10.72C705.536 11.2 706.196 11.86 706.676 12.7C707.17 13.54 707.416 14.5067 707.416 15.6C707.416 16.6933 707.163 17.6667 706.656 18.52C706.15 19.36 705.476 20.0267 704.636 20.52C703.81 21 702.89 21.24 701.876 21.24ZM701.876 19.44C702.543 19.44 703.143 19.2733 703.676 18.94C704.223 18.6067 704.65 18.1467 704.956 17.56C705.276 16.9733 705.436 16.32 705.436 15.6C705.436 14.8667 705.276 14.22 704.956 13.66C704.65 13.0867 704.223 12.6333 703.676 12.3C703.143 11.9533 702.543 11.78 701.876 11.78C701.196 11.78 700.583 11.9533 700.036 12.3C699.503 12.6333 699.076 13.0867 698.756 13.66C698.436 14.22 698.276 14.8667 698.276 15.6C698.276 16.32 698.436 16.9733 698.756 17.56C699.076 18.1467 699.503 18.6067 700.036 18.94C700.583 19.2733 701.196 19.44 701.876 19.44Z" fill="#C5992E"/>
</svg>
