<svg width="185" height="52" viewBox="0 0 185 52" fill="none" xmlns="http://www.w3.org/2000/svg">
<path d="M46.848 39.808C45.3547 39.808 43.8187 39.3387 42.24 38.4C38.6987 36.352 34.0907 30.3147 28.416 20.288C26.7947 24.5973 24.64 28.0747 21.952 30.72C18.7093 33.9627 15.0613 35.584 11.008 35.584C7.936 35.584 5.46133 34.7307 3.584 33.024C1.536 31.232 0.512 28.8427 0.512 25.856C0.512 23.808 0.938667 21.9733 1.792 20.352C2.688 18.688 3.904 17.3867 5.44 16.448C6.976 15.4667 8.72533 14.976 10.688 14.976C11.456 14.976 12.224 15.168 12.992 15.552C13.76 15.8933 14.4 16.3627 14.912 16.96C15.424 17.5573 15.68 18.2187 15.68 18.944C15.68 19.4133 15.552 19.648 15.296 19.648C15.168 19.648 14.6347 19.1787 13.696 18.24C12.7573 17.3013 11.6693 16.832 10.432 16.832C8.85333 16.832 7.44533 17.2587 6.208 18.112C4.97067 18.9653 3.98933 20.096 3.264 21.504C2.58133 22.912 2.24 24.4267 2.24 26.048C2.24 28.6507 3.136 30.656 4.928 32.064C6.54933 33.4293 8.68267 34.112 11.328 34.112C14.912 34.112 18.1973 32.1707 21.184 28.288C23.36 25.3867 25.216 21.8453 26.752 17.664C26.6667 17.536 26.56 17.408 26.432 17.28C26.304 17.1093 26.1547 16.9387 25.984 16.768C25.7707 16.9813 25.4933 17.088 25.152 17.088C24.2987 17.088 23.872 16.6613 23.872 15.808C23.872 14.784 24.4267 14.272 25.536 14.272C26.2187 14.272 26.8587 14.6347 27.456 15.36C27.9253 13.8667 28.352 12.3733 28.736 10.88C29.1627 9.38667 29.5253 7.89333 29.824 6.4C29.9093 5.632 30.1013 4.544 30.4 3.136C30.4853 2.70933 30.5493 2.496 30.592 2.496C30.6347 2.496 30.656 2.432 30.656 2.304V2.176C30.272 2.176 29.2053 2.688 27.456 3.712C25.9627 4.608 24.896 5.29066 24.256 5.76C21.7387 7.76533 20.48 9.49333 20.48 10.944C20.48 11.7547 21.2053 12.288 22.656 12.544C24.1067 12.8427 24.832 13.0773 24.832 13.248C24.832 13.9307 23.6373 14.272 21.248 14.272C19.5413 14.272 18.688 13.44 18.688 11.776C18.688 10.4533 19.2 9.06667 20.224 7.616C21.12 6.37867 22.208 5.33333 23.488 4.48C24.8107 3.584 26.304 2.64533 27.968 1.664C29.3333 0.895999 30.4 0.511999 31.168 0.511999C32.2347 0.511999 32.768 1.23733 32.768 2.688C32.768 5.376 31.68 10.1547 29.504 17.024C30.912 16.896 32.4907 16.5333 34.24 15.936C36.032 15.296 37.76 14.5067 39.424 13.568C41.088 12.6293 42.4107 11.6693 43.392 10.688C44.416 9.70667 45.2053 8.64 45.76 7.488C46.3147 6.336 46.5493 5.14133 46.464 3.904L46.4 2.816C46.4 2.60266 46.3787 2.41066 46.336 2.24C46.336 2.02666 46.336 1.856 46.336 1.728C46.336 0.874665 46.6133 0.447998 47.168 0.447998C48.2347 0.447998 48.768 1.55733 48.768 3.776C48.768 7.82933 46.4427 11.2853 41.792 14.144C37.952 16.4907 33.8133 17.8987 29.376 18.368C32.6187 23.9147 34.88 27.584 36.16 29.376C39.4453 33.856 42.5387 36.5227 45.44 37.376C45.7387 37.4613 46.016 37.5253 46.272 37.568C46.5707 37.6107 46.8267 37.632 47.04 37.632C48.4053 37.632 49.088 37.056 49.088 35.904C49.088 35.5627 49.0027 35.136 48.832 34.624C48.7467 34.3253 48.6613 34.0693 48.576 33.856C48.5333 33.6853 48.512 33.5147 48.512 33.344C48.512 33.0027 48.64 32.832 48.896 32.832C49.1947 32.832 49.5147 33.0667 49.856 33.536C50.1973 34.0053 50.496 34.5173 50.752 35.072C51.008 35.6693 51.136 36.1387 51.136 36.48C51.136 37.5467 50.688 38.3573 49.792 38.912C48.9387 39.5093 47.9573 39.808 46.848 39.808ZM46.2745 33.024C44.3545 33.024 43.3945 31.9147 43.3945 29.696C43.3945 26.496 44.5892 22.5493 46.9785 17.856C48.9838 13.9307 50.7972 11.968 52.4185 11.968C52.7598 11.968 53.1438 12.096 53.5705 12.352L54.2745 12.736L54.4025 12.48C54.4452 12.1387 54.6372 11.6693 54.9785 11.072C55.2345 10.9867 55.4265 10.944 55.5545 10.944C56.6212 10.944 57.1545 11.9467 57.1545 13.952C57.1545 14.1653 57.1545 14.4427 57.1545 14.784C57.1545 15.0827 57.1332 15.4453 57.0905 15.872C57.0478 16.2987 57.0052 16.6827 56.9625 17.024C56.9625 17.3227 56.9625 17.5787 56.9625 17.792C56.9625 18.3893 57.4105 18.688 58.3065 18.688C58.4772 18.688 58.7545 18.624 59.1385 18.496C59.5225 18.368 59.8212 18.304 60.0345 18.304C60.4185 18.304 60.6105 18.432 60.6105 18.688C60.6105 19.3707 59.8638 19.712 58.3705 19.712C57.4745 19.712 56.8558 19.5627 56.5145 19.264C55.7465 22.1227 54.5518 24.9173 52.9305 27.648C50.7545 31.232 48.5358 33.024 46.2745 33.024ZM46.6585 31.488C48.8345 31.488 51.1385 29.0133 53.5705 24.064C54.6798 21.76 55.2772 20.0107 55.3625 18.816C54.5945 18.3893 54.1252 17.472 53.9545 16.064C53.7412 14.8267 53.4852 14.208 53.1865 14.208C52.0345 14.208 50.6478 15.808 49.0265 19.008C46.6798 23.5307 45.5065 27.1147 45.5065 29.76C45.5065 30.912 45.8905 31.488 46.6585 31.488ZM50.2055 51.648C49.8215 51.648 49.6295 51.3067 49.6295 50.624C49.6295 50.2827 50.5255 47.9787 52.3175 43.712L55.3895 36.352C55.6882 35.6267 56.1148 34.5173 56.6695 33.024C57.1815 31.5733 57.8428 29.76 58.6535 27.584L62.6855 16.448C62.7708 16.2347 62.8775 15.9147 63.0055 15.488C63.1335 15.0613 63.2828 14.5707 63.4535 14.016C64.0082 12.4373 64.8188 11.648 65.8855 11.648C66.1842 11.648 66.3335 11.8187 66.3335 12.16C66.3335 12.5013 65.7788 14.208 64.6695 17.28L62.5575 22.848C63.5815 20.7147 64.8402 18.5813 66.3335 16.448C68.4668 13.376 70.1522 11.84 71.3895 11.84C73.0535 11.84 73.8855 13.2907 73.8855 16.192C73.8855 18.5813 73.3522 21.0773 72.2855 23.68C71.2188 26.24 69.8535 28.4373 68.1895 30.272C66.1415 32.4907 64.1575 33.6 62.2375 33.6C60.4882 33.6 59.6135 33.0027 59.6135 31.808C59.6135 31.424 59.6775 31.1893 59.8055 31.104C59.8055 31.0613 59.8695 31.04 59.9975 31.04C59.9975 31.04 59.9762 31.04 59.9335 31.04C59.9335 31.04 59.8908 31.0613 59.8055 31.104C59.8055 31.1467 60.1468 31.296 60.8295 31.552C61.2988 31.7227 61.6828 31.8507 61.9815 31.936C62.2802 32.0213 62.5148 32.064 62.6855 32.064C65.0322 32.064 67.1655 30.1227 69.0855 26.24C70.7495 22.912 71.5815 19.9253 71.5815 17.28C71.5815 15.488 71.1762 14.592 70.3655 14.592C70.3228 14.6347 70.2588 14.656 70.1735 14.656H70.2375C69.0428 14.8267 66.9948 17.3867 64.0935 22.336C62.8988 24.4267 61.8962 26.2613 61.0855 27.84C60.2748 29.4187 59.6562 30.72 59.2295 31.744C58.8028 32.9813 58.2268 34.5387 57.5015 36.416C56.8188 38.2933 56.0082 40.4907 55.0695 43.008C52.8935 48.768 51.2722 51.648 50.2055 51.648ZM84.715 10.816C84.331 10.816 83.883 10.624 83.371 10.24C82.9017 9.81333 82.667 9.408 82.667 9.024C82.667 8.64 82.8803 8.27733 83.307 7.936C83.7763 7.552 84.3097 7.232 84.907 6.976C85.5043 6.72 86.0163 6.592 86.443 6.592C86.699 6.592 86.827 6.72 86.827 6.976C86.827 7.14666 86.5923 7.46667 86.123 7.936C85.611 8.448 85.3337 8.74667 85.291 8.832L85.227 9.984C85.227 10.5387 85.0563 10.816 84.715 10.816ZM76.267 32.384C74.6883 32.384 73.899 31.5307 73.899 29.824C73.899 27.52 75.4777 23.0827 78.635 16.512C79.8297 13.9093 81.2163 12.608 82.795 12.608C83.2217 12.608 83.435 12.7147 83.435 12.928C78.2723 22.3147 75.691 28.0533 75.691 30.144C75.691 30.8267 75.9683 31.168 76.523 31.168C76.779 31.168 77.1417 31.0187 77.611 30.72C78.0803 30.3787 78.571 30.016 79.083 29.632C79.595 29.2053 80.0217 28.8427 80.363 28.544C80.7043 28.2027 80.875 28.032 80.875 28.032C80.9603 28.032 81.0457 28.2667 81.131 28.736C81.131 29.248 80.8323 29.8027 80.235 30.4C79.6377 30.9547 78.955 31.424 78.187 31.808C77.4617 32.192 76.8217 32.384 76.267 32.384ZM113.233 36.736C111.953 36.736 110.118 35.9893 107.729 34.496C105.254 34.112 103.249 33.4933 101.713 32.64C100.604 31.9573 99.5797 31.0613 98.641 29.952C97.7023 28.8427 96.9343 27.6907 96.337 26.496C95.7823 25.3013 95.505 24.2347 95.505 23.296C95.505 20.9067 96.465 19.712 98.385 19.712C99.7077 19.712 100.817 20.7787 101.713 22.912L104.017 28.288C105.041 30.208 106.3 31.7227 107.793 32.832C109.116 33.1307 110.609 33.28 112.273 33.28C115.601 33.28 118.63 32.704 121.361 31.552C124.774 30.144 126.929 28.096 127.825 25.408C128.081 24.64 128.209 23.936 128.209 23.296C128.209 21.6747 127.142 20.4373 125.009 19.584C124.454 19.3707 123.729 19.1573 122.833 18.944C121.98 18.7307 120.956 18.5387 119.761 18.368C116.945 17.8987 115.174 17.5787 114.449 17.408C109.372 16.1707 106.833 13.9947 106.833 10.88C106.833 9.30133 107.622 7.72267 109.201 6.144C112.358 2.98667 116.753 1.408 122.385 1.408C127.633 1.408 131.089 2.92267 132.753 5.952C133.137 6.63467 133.329 7.38133 133.329 8.192C133.329 9.472 132.774 10.496 131.665 11.264C130.598 11.9893 129.382 12.352 128.017 12.352C127.036 12.352 126.545 12.1173 126.545 11.648C126.545 11.264 126.95 11.008 127.761 10.88C128.87 10.6667 129.617 10.4747 130.001 10.304C130.812 9.87733 131.217 9.10933 131.217 8C131.217 6.208 130.172 4.90667 128.081 4.096C126.545 3.49867 124.753 3.2 122.705 3.2C120.486 3.2 118.353 3.52 116.305 4.16C113.788 4.928 111.953 6.016 110.801 7.424C109.862 8.49067 109.393 9.536 109.393 10.56C109.393 12.6933 111.548 14.208 115.857 15.104C116.54 15.1893 117.372 15.3387 118.353 15.552C119.334 15.7227 120.486 15.936 121.809 16.192C128.038 17.4293 131.153 19.6693 131.153 22.912C131.153 23.808 130.961 24.7467 130.577 25.728C129.212 29.0133 126.545 31.4453 122.577 33.024C119.292 34.3467 115.601 34.944 111.505 34.816C111.846 34.9013 112.209 35.008 112.593 35.136C112.977 35.264 113.404 35.3707 113.873 35.456V35.52L113.937 35.456C114.193 35.584 114.321 35.776 114.321 36.032C114.321 36.5013 113.958 36.736 113.233 36.736ZM104.465 31.872C103.569 31.0187 102.673 29.9093 101.777 28.544C100.881 27.1787 99.9637 25.5787 99.025 23.744C98.4277 22.5067 97.937 21.888 97.553 21.888C97.5103 21.888 97.489 21.9093 97.489 21.952C97.489 23.2747 97.809 24.5973 98.449 25.92C99.089 27.2427 99.9423 28.4373 101.009 29.504C102.076 30.528 103.228 31.3173 104.465 31.872ZM137.181 32.64C134.877 32.64 133.725 31.168 133.725 28.224V27.904C133.725 23.8507 135.474 19.8187 138.973 15.808C140.637 13.888 142.066 12.928 143.261 12.928C143.602 12.928 143.858 13.0133 144.029 13.184C143.986 12.032 144.413 11.456 145.309 11.456C145.906 11.456 146.205 12.608 146.205 14.912C146.205 20.544 144.776 23.36 141.917 23.36C140.21 23.36 138.738 22.7413 137.501 21.504C136.178 24.192 135.517 26.624 135.517 28.8C135.517 30.5493 136.093 31.424 137.245 31.424C137.757 31.424 138.376 31.1467 139.101 30.592C139.869 29.9947 140.616 29.3333 141.341 28.608C142.066 27.84 142.664 27.1787 143.133 26.624C143.645 26.0267 143.901 25.728 143.901 25.728C144.072 25.728 144.157 25.856 144.157 26.112C144.157 26.624 143.922 27.2427 143.453 27.968C142.984 28.6507 142.386 29.3333 141.661 30.016C140.978 30.6987 140.274 31.296 139.549 31.808C138.824 32.2773 138.205 32.5547 137.693 32.64H137.181ZM141.405 22.016C142.258 22.016 142.941 21.3333 143.453 19.968C143.88 18.944 144.093 17.8773 144.093 16.768V15.744C144.093 15.2747 144.072 14.9547 144.029 14.784C144.029 14.5707 144.029 14.528 144.029 14.656C141.469 15.5947 139.506 17.5147 138.141 20.416C139.592 21.4827 140.68 22.016 141.405 22.016ZM145.32 32.576C144.893 32.576 144.68 32.384 144.68 32C144.68 31.7013 145.256 30.3787 146.408 28.032L149.544 21.504C150.227 20.096 150.739 18.8373 151.08 17.728C151.421 16.576 151.677 15.5947 151.848 14.784C151.933 14.1867 152.275 13.5893 152.872 12.992C153.469 12.352 154.045 12.032 154.6 12.032C154.984 12.032 155.176 12.2667 155.176 12.736C155.176 13.376 153.469 17.3013 150.056 24.512C152.317 21.0987 154.045 18.6667 155.24 17.216C157.928 13.9733 160.125 12.352 161.832 12.352C162.472 12.352 162.792 12.5653 162.792 12.992C162.792 14.0587 161.789 16.704 159.784 20.928C157.736 25.0667 156.712 27.52 156.712 28.288C156.712 28.416 156.755 28.5227 156.84 28.608C156.925 28.6933 156.968 28.8 156.968 28.928C156.968 29.184 156.755 29.6747 156.328 30.4C155.944 31.1253 155.624 31.5947 155.368 31.808C154.941 32.1493 154.536 32.32 154.152 32.32C153.555 32.32 153.256 32.0853 153.256 31.616C153.256 30.5493 154.408 27.7547 156.712 23.232C158.973 18.624 160.104 15.936 160.104 15.168C160.104 14.8693 160.019 14.72 159.848 14.72C158.952 14.72 156.648 17.1947 152.936 22.144C151.912 23.5093 150.995 24.8747 150.184 26.24C149.373 27.5627 148.669 28.8853 148.072 30.208C147.389 31.7867 146.472 32.576 145.32 32.576ZM171.761 9.92C171.334 9.92 170.822 9.70667 170.225 9.28C169.628 8.85333 169.329 8.42667 169.329 8C169.329 7.65867 169.521 7.296 169.905 6.912C170.289 6.48533 170.652 6.272 170.993 6.272C172.06 5.67467 172.913 5.376 173.553 5.376C173.852 5.376 174.044 5.48267 174.129 5.696C174.129 5.824 173.873 6.12267 173.361 6.592C172.764 7.104 172.444 7.50933 172.401 7.808C172.102 9.216 171.889 9.92 171.761 9.92ZM150.513 48.32C149.062 48.32 147.953 47.7013 147.185 46.464C146.502 45.3973 146.161 44.096 146.161 42.56C146.161 42.304 146.182 41.984 146.225 41.6C146.268 41.216 146.332 40.7893 146.417 40.32C146.588 39.1253 146.801 38.528 147.057 38.528C147.142 38.6133 147.185 38.6987 147.185 38.784L147.313 41.088C147.526 45.0133 148.572 46.976 150.449 46.976C153.137 46.976 156.294 43.1787 159.921 35.584C162.694 29.824 164.657 24.7253 165.809 20.288C165.894 19.8613 165.958 19.4987 166.001 19.2C166.086 18.8587 166.129 18.5813 166.129 18.368C166.129 18.2827 166.129 18.1973 166.129 18.112C166.129 18.0267 166.108 17.8987 166.065 17.728C166.022 17.6 165.98 17.4933 165.937 17.408C165.937 17.28 165.937 17.1947 165.937 17.152C165.937 16.768 166.108 16.2773 166.449 15.68C166.833 15.04 167.26 14.4853 167.729 14.016C168.241 13.504 168.668 13.248 169.009 13.248C169.35 13.248 169.692 13.5467 170.033 14.144C169.99 14.656 169.777 15.5733 169.393 16.896C169.009 18.176 168.433 19.8613 167.665 21.952C166.598 24.8533 165.51 27.584 164.401 30.144C163.292 32.6613 162.14 35.0293 160.945 37.248C156.977 44.6293 153.5 48.32 150.513 48.32ZM178.139 32.448C177.755 32.448 177.562 32.1707 177.562 31.616C177.562 30.1653 178.352 27.456 179.931 23.488C178.992 25.1947 177.904 26.9227 176.667 28.672C174.875 31.1467 173.488 32.384 172.507 32.384C171.141 32.384 170.459 31.424 170.459 29.504C170.459 27.4987 171.355 24.8747 173.147 21.632C173.957 20.1387 175.195 18.56 176.859 16.896C178.821 14.9333 180.464 13.952 181.787 13.952C182.853 13.952 183.387 14.3787 183.387 15.232C183.387 15.5733 183.28 16.0213 183.067 16.576C182.896 17.1307 182.683 17.408 182.427 17.408C182.384 17.408 182.256 17.216 182.043 16.832C181.829 16.4907 181.595 16.32 181.339 16.32C180.443 16.32 179.227 17.1947 177.691 18.944C175.515 21.4187 174 23.872 173.147 26.304C172.507 28.0107 172.187 29.376 172.187 30.4C172.187 30.9973 172.336 31.296 172.635 31.296C173.317 31.296 174.896 29.44 177.371 25.728C178.565 23.9787 179.525 22.528 180.251 21.376C180.976 20.1813 181.445 19.3067 181.659 18.752C181.787 18.4107 182.128 17.984 182.683 17.472C183.28 16.9173 183.728 16.64 184.027 16.64C184.197 16.64 184.283 16.768 184.283 17.024C184.283 17.28 184.155 17.728 183.899 18.368C181.168 25.024 179.803 28.8853 179.803 29.952C179.803 30.336 179.888 30.528 180.059 30.528C180.187 30.528 180.592 30.1867 181.275 29.504C181.957 28.8213 182.384 28.48 182.555 28.48C182.725 28.48 182.811 28.608 182.811 28.864C182.811 29.2053 182.491 29.6747 181.851 30.272C181.253 30.8267 180.571 31.3387 179.803 31.808C179.077 32.2347 178.523 32.448 178.139 32.448Z" fill="#C5992E"/>
</svg>
