<svg width="1179" height="28" viewBox="0 0 1179 28" fill="none" xmlns="http://www.w3.org/2000/svg">
<path d="M333.893 14H0" stroke="#C5992E" stroke-width="2"/>
<path d="M1178.22 14H486" stroke="#C5992E" stroke-width="2"/>
<path d="M510.628 14C510.628 21.2725 505.295 27 498.914 27C492.532 27 487.199 21.2725 487.199 14C487.199 6.72747 492.532 1 498.914 1C505.295 1 510.628 6.72747 510.628 14Z" stroke="#C5992E" stroke-width="2"/>
<path d="M352.66 21V6.1H354.46L360.04 14.04H359.12L364.66 6.1H366.46V21H364.48V8.58L365.18 8.8L359.64 16.6H359.48L354 8.8L354.62 8.58V21H352.66ZM374.509 21.24C373.469 21.24 372.543 20.9933 371.729 20.5C370.916 20.0067 370.276 19.3333 369.809 18.48C369.343 17.6133 369.109 16.6467 369.109 15.58C369.109 14.5 369.336 13.54 369.789 12.7C370.256 11.86 370.883 11.2 371.669 10.72C372.469 10.2267 373.363 9.98 374.349 9.98C375.149 9.98 375.856 10.1267 376.469 10.42C377.096 10.7 377.623 11.0867 378.049 11.58C378.489 12.06 378.823 12.6133 379.049 13.24C379.289 13.8533 379.409 14.4933 379.409 15.16C379.409 15.3067 379.396 15.4733 379.369 15.66C379.356 15.8333 379.336 16 379.309 16.16H370.469V14.56H378.229L377.349 15.28C377.469 14.5867 377.403 13.9667 377.149 13.42C376.896 12.8733 376.523 12.44 376.029 12.12C375.536 11.8 374.976 11.64 374.349 11.64C373.723 11.64 373.149 11.8 372.629 12.12C372.109 12.44 371.703 12.9 371.409 13.5C371.129 14.0867 371.016 14.7867 371.069 15.6C371.016 16.3867 371.136 17.08 371.429 17.68C371.736 18.2667 372.163 18.7267 372.709 19.06C373.269 19.38 373.876 19.54 374.529 19.54C375.249 19.54 375.856 19.3733 376.349 19.04C376.843 18.7067 377.243 18.28 377.549 17.76L379.109 18.56C378.896 19.0533 378.563 19.5067 378.109 19.92C377.669 20.32 377.143 20.64 376.529 20.88C375.929 21.12 375.256 21.24 374.509 21.24ZM381.835 21V10.22H383.655V12.32L383.355 12.14C383.621 11.46 384.048 10.9333 384.635 10.56C385.235 10.1733 385.935 9.98 386.735 9.98C387.508 9.98 388.195 10.1533 388.795 10.5C389.408 10.8467 389.888 11.3267 390.235 11.94C390.595 12.5533 390.775 13.2467 390.775 14.02V21H388.895V14.62C388.895 14.02 388.788 13.5133 388.575 13.1C388.361 12.6867 388.055 12.3667 387.655 12.14C387.268 11.9 386.821 11.78 386.315 11.78C385.808 11.78 385.355 11.9 384.955 12.14C384.568 12.3667 384.261 12.6933 384.035 13.12C383.808 13.5333 383.695 14.0333 383.695 14.62V21H381.835ZM397.256 21.24C396.483 21.24 395.783 21.06 395.156 20.7C394.543 20.34 394.063 19.84 393.716 19.2C393.383 18.5467 393.216 17.8 393.216 16.96V10.22H395.076V16.76C395.076 17.2933 395.183 17.76 395.396 18.16C395.623 18.56 395.929 18.8733 396.316 19.1C396.716 19.3267 397.169 19.44 397.676 19.44C398.183 19.44 398.629 19.3267 399.016 19.1C399.416 18.8733 399.723 18.5467 399.936 18.12C400.163 17.6933 400.276 17.1867 400.276 16.6V10.22H402.156V21H400.336V18.9L400.636 19.08C400.383 19.76 399.949 20.2933 399.336 20.68C398.736 21.0533 398.043 21.24 397.256 21.24ZM408.715 21V6.1H418.155V7.9H410.675V12.72H417.455V14.52H410.675V21H408.715ZM422.768 21.24C422.061 21.24 421.435 21.1133 420.888 20.86C420.355 20.5933 419.935 20.2333 419.628 19.78C419.321 19.3133 419.168 18.78 419.168 18.18C419.168 17.6067 419.288 17.0933 419.528 16.64C419.781 16.1733 420.168 15.78 420.688 15.46C421.221 15.14 421.888 14.9133 422.688 14.78L426.688 14.12V15.68L423.108 16.28C422.415 16.4 421.908 16.62 421.588 16.94C421.281 17.26 421.128 17.6533 421.128 18.12C421.128 18.56 421.301 18.9267 421.648 19.22C422.008 19.5133 422.455 19.66 422.988 19.66C423.668 19.66 424.255 19.52 424.748 19.24C425.255 18.9467 425.648 18.5533 425.928 18.06C426.221 17.5667 426.368 17.02 426.368 16.42V13.68C426.368 13.0933 426.148 12.62 425.708 12.26C425.281 11.8867 424.715 11.7 424.008 11.7C423.395 11.7 422.848 11.86 422.368 12.18C421.901 12.4867 421.555 12.9 421.328 13.42L419.708 12.58C419.908 12.0867 420.228 11.6467 420.668 11.26C421.108 10.86 421.621 10.5467 422.208 10.32C422.795 10.0933 423.408 9.98 424.048 9.98C424.875 9.98 425.601 10.14 426.228 10.46C426.855 10.7667 427.341 11.2 427.688 11.76C428.048 12.3067 428.228 12.9467 428.228 13.68V21H426.408V18.96L426.748 19.08C426.521 19.5067 426.215 19.88 425.828 20.2C425.441 20.52 424.988 20.7733 424.468 20.96C423.948 21.1467 423.381 21.24 422.768 21.24ZM433.917 21L429.697 10.22H431.777L435.157 19.34H434.437L437.837 10.22H439.917L435.677 21H433.917ZM446.505 21.24C445.465 21.24 444.525 21 443.685 20.52C442.845 20.0267 442.179 19.3533 441.685 18.5C441.192 17.6467 440.945 16.68 440.945 15.6C440.945 14.52 441.185 13.56 441.665 12.72C442.159 11.88 442.825 11.2133 443.665 10.72C444.505 10.2267 445.452 9.98 446.505 9.98C447.545 9.98 448.485 10.2267 449.325 10.72C450.165 11.2 450.825 11.86 451.305 12.7C451.799 13.54 452.045 14.5067 452.045 15.6C452.045 16.6933 451.792 17.6667 451.285 18.52C450.779 19.36 450.105 20.0267 449.265 20.52C448.439 21 447.519 21.24 446.505 21.24ZM446.505 19.44C447.172 19.44 447.772 19.2733 448.305 18.94C448.852 18.6067 449.279 18.1467 449.585 17.56C449.905 16.9733 450.065 16.32 450.065 15.6C450.065 14.8667 449.905 14.22 449.585 13.66C449.279 13.0867 448.852 12.6333 448.305 12.3C447.772 11.9533 447.172 11.78 446.505 11.78C445.825 11.78 445.212 11.9533 444.665 12.3C444.132 12.6333 443.705 13.0867 443.385 13.66C443.065 14.22 442.905 14.8667 442.905 15.6C442.905 16.32 443.065 16.9733 443.385 17.56C443.705 18.1467 444.132 18.6067 444.665 18.94C445.212 19.2733 445.825 19.44 446.505 19.44ZM454.471 21V10.22H456.291V12.2L456.091 11.92C456.345 11.3067 456.731 10.8533 457.251 10.56C457.771 10.2533 458.405 10.1 459.151 10.1H459.811V11.86H458.871C458.111 11.86 457.498 12.1 457.031 12.58C456.565 13.0467 456.331 13.7133 456.331 14.58V21H454.471ZM461.463 21V10.22H463.323V21H461.463ZM461.463 8.5V6.1H463.323V8.5H461.463ZM470.59 21.12C469.536 21.12 468.723 20.82 468.15 20.22C467.59 19.62 467.31 18.7733 467.31 17.68V12H465.35V10.22H465.75C466.23 10.22 466.61 10.0733 466.89 9.78C467.17 9.48667 467.31 9.1 467.31 8.62V7.74H469.17V10.22H471.59V12H469.17V17.62C469.17 17.98 469.223 18.2933 469.33 18.56C469.45 18.8267 469.643 19.04 469.91 19.2C470.176 19.3467 470.53 19.42 470.97 19.42C471.063 19.42 471.176 19.4133 471.31 19.4C471.456 19.3867 471.59 19.3733 471.71 19.36V21C471.536 21.04 471.343 21.0667 471.13 21.08C470.916 21.1067 470.736 21.12 470.59 21.12Z" fill="#C5992E"/>
</svg>
