<svg width="561" height="18" viewBox="0 0 561 18" fill="none" xmlns="http://www.w3.org/2000/svg">
<line x1="284.002" y1="10" x2="560.002" y2="10.5" stroke="#514F4F" stroke-width="2"/>
<line x1="0.997925" y1="10.5" x2="247.998" y2="9.98755" stroke="#514F4F" stroke-width="2"/>
<path d="M261.146 15.168C260.39 15.168 259.685 15.0327 259.032 14.762C258.388 14.4913 257.819 14.1133 257.324 13.628C256.839 13.1427 256.456 12.5733 256.176 11.92C255.905 11.2667 255.77 10.5527 255.77 9.778C255.77 9.00333 255.905 8.28933 256.176 7.636C256.456 6.97333 256.839 6.404 257.324 5.928C257.809 5.44267 258.379 5.06933 259.032 4.808C259.685 4.53733 260.39 4.402 261.146 4.402C261.911 4.402 262.616 4.53733 263.26 4.808C263.913 5.06933 264.483 5.44267 264.968 5.928C265.463 6.41333 265.845 6.98267 266.116 7.636C266.387 8.28933 266.522 9.00333 266.522 9.778C266.522 10.5527 266.382 11.2667 266.102 11.92C265.831 12.5733 265.453 13.1427 264.968 13.628C264.483 14.1133 263.913 14.4913 263.26 14.762C262.607 15.0327 261.902 15.168 261.146 15.168ZM261.146 13.656C261.687 13.656 262.182 13.558 262.63 13.362C263.087 13.166 263.484 12.8953 263.82 12.55C264.156 12.1953 264.417 11.7847 264.604 11.318C264.791 10.842 264.884 10.3287 264.884 9.778C264.884 9.22733 264.791 8.71867 264.604 8.252C264.417 7.78533 264.156 7.37467 263.82 7.02C263.484 6.66533 263.087 6.39 262.63 6.194C262.182 5.998 261.687 5.9 261.146 5.9C260.605 5.9 260.105 5.998 259.648 6.194C259.2 6.39 258.808 6.66533 258.472 7.02C258.136 7.37467 257.875 7.78533 257.688 8.252C257.511 8.71867 257.422 9.22733 257.422 9.778C257.422 10.3287 257.511 10.842 257.688 11.318C257.875 11.7847 258.136 12.1953 258.472 12.55C258.808 12.8953 259.205 13.166 259.662 13.362C260.119 13.558 260.614 13.656 261.146 13.656ZM268.369 15V4.57H272.163C272.863 4.57 273.479 4.70067 274.011 4.962C274.543 5.214 274.958 5.58733 275.257 6.082C275.565 6.56733 275.719 7.15067 275.719 7.832C275.719 8.55067 275.537 9.16667 275.173 9.68C274.818 10.1933 274.338 10.5667 273.731 10.8L276.139 15H274.263L271.701 10.45L272.779 11.08H270.021V15H268.369ZM270.021 9.61H272.191C272.574 9.61 272.905 9.53533 273.185 9.386C273.465 9.23667 273.68 9.03133 273.829 8.77C273.988 8.49933 274.067 8.182 274.067 7.818C274.067 7.454 273.988 7.14133 273.829 6.88C273.68 6.60933 273.465 6.404 273.185 6.264C272.905 6.11467 272.574 6.04 272.191 6.04H270.021V9.61Z" fill="#514F4F"/>
</svg>
