<svg width="28" height="30" viewBox="0 0 28 30" fill="none" xmlns="http://www.w3.org/2000/svg">
<path d="M25.8222 30L16.0222 19.5C15.2444 20.1667 14.35 20.6944 13.3389 21.0833C12.3278 21.4722 11.2519 21.6667 10.1111 21.6667C7.28519 21.6667 4.89378 20.6178 2.93689 18.52C0.98 16.4222 0.00103704 13.86 0 10.8333C0 7.80556 0.978963 5.24333 2.93689 3.14667C4.89481 1.05 7.28622 0.00111111 10.1111 0C12.937 0 15.3284 1.04889 17.2853 3.14667C19.2422 5.24444 20.2212 7.80667 20.2222 10.8333C20.2222 12.0556 20.0407 13.2083 19.6778 14.2917C19.3148 15.375 18.8222 16.3333 18.2 17.1667L28 27.6667L25.8222 30ZM10.1111 18.3333C12.0556 18.3333 13.7086 17.6039 15.0702 16.145C16.4319 14.6861 17.1121 12.9156 17.1111 10.8333C17.1111 8.75 16.4303 6.97889 15.0687 5.52C13.707 4.06111 12.0545 3.33222 10.1111 3.33333C8.16667 3.33333 6.51363 4.06278 5.152 5.52167C3.79037 6.98056 3.11007 8.75111 3.11111 10.8333C3.11111 12.9167 3.79193 14.6878 5.15356 16.1467C6.51519 17.6056 8.1677 18.3344 10.1111 18.3333Z" fill="white"/>
</svg>
