<svg width="109" height="22" viewBox="0 0 109 22" fill="none" xmlns="http://www.w3.org/2000/svg">
<path d="M10.9813 0L13.4467 7.60081H21.425L14.9704 12.2984L17.4359 19.8992L10.9813 15.2016L4.52664 19.8992L6.99208 12.2984L0.537461 7.60081H8.51581L10.9813 0Z" fill="white"/>
<path d="M32.9432 0L35.4086 7.60081H43.387L36.9323 12.2984L39.3978 19.8992L32.9432 15.2016L26.4885 19.8992L28.954 12.2984L22.4994 7.60081H30.4777L32.9432 0Z" fill="white"/>
<path d="M54.4993 0L56.8735 7.60081H64.5563L58.3408 12.2984L60.7149 19.8992L54.4993 15.2016L48.2838 19.8992L50.6579 12.2984L44.4424 7.60081H52.1252L54.4993 0Z" fill="white"/>
<path d="M76.0545 0L78.5199 7.60081H86.4983L80.0437 12.2984L82.5091 19.8992L76.0545 15.2016L69.5999 19.8992L72.0653 12.2984L65.6107 7.60081H73.5891L76.0545 0Z" fill="white"/>
<path d="M98.0193 0L100.485 7.60081H108.463L102.009 12.2984L104.474 19.8992L98.0193 15.2016L91.5647 19.8992L94.0302 12.2984L87.5755 7.60081H95.5539L98.0193 0Z" fill="white"/>
</svg>
