<svg width="1240" height="58" viewBox="0 0 1240 58" fill="none" xmlns="http://www.w3.org/2000/svg">
<path d="M1239 13.1577L1099 15" stroke="#C5992E" stroke-width="2"/>
<path d="M1046.89 14.8738H0" stroke="#C5992E" stroke-width="2"/>
<circle cx="997.5" cy="14.5" r="10.5" stroke="#C5992E" stroke-width="2"/>
<path d="M1059.26 21V7.9H1055.22V6.1H1065.22V7.9H1061.24V21H1059.26ZM1066.89 21V10.22H1068.75V21H1066.89ZM1066.89 8.5V6.1H1068.75V8.5H1066.89ZM1071.64 21V10.22H1073.46V12.42L1073.2 12.08C1073.46 11.4 1073.89 10.88 1074.48 10.52C1075.06 10.16 1075.72 9.98 1076.46 9.98C1077.3 9.98 1078.05 10.2133 1078.72 10.68C1079.4 11.1467 1079.86 11.76 1080.12 12.52L1079.6 12.54C1079.88 11.7 1080.35 11.0667 1081.02 10.64C1081.68 10.2 1082.42 9.98 1083.24 9.98C1083.98 9.98 1084.66 10.1533 1085.26 10.5C1085.87 10.8467 1086.36 11.3267 1086.72 11.94C1087.08 12.5533 1087.26 13.2467 1087.26 14.02V21H1085.38V14.62C1085.38 14.02 1085.27 13.5133 1085.06 13.1C1084.84 12.6867 1084.55 12.3667 1084.18 12.14C1083.82 11.9 1083.39 11.78 1082.9 11.78C1082.42 11.78 1081.98 11.9 1081.6 12.14C1081.22 12.3667 1080.92 12.6933 1080.7 13.12C1080.48 13.5333 1080.38 14.0333 1080.38 14.62V21H1078.5V14.62C1078.5 14.02 1078.39 13.5133 1078.18 13.1C1077.96 12.6867 1077.67 12.3667 1077.3 12.14C1076.94 11.9 1076.51 11.78 1076.02 11.78C1075.54 11.78 1075.1 11.9 1074.72 12.14C1074.34 12.3667 1074.04 12.6933 1073.82 13.12C1073.6 13.5333 1073.5 14.0333 1073.5 14.62V21H1071.64Z" fill="#C5992E"/>
</svg>
